<svg width="16" height="16" viewBox="0 0 16 16" fill="none" xmlns="http://www.w3.org/2000/svg">
<path d="M1.5 4.16675C1.5 3.89061 1.72386 3.66675 2 3.66675H14C14.2761 3.66675 14.5 3.89061 14.5 4.16675C14.5 4.44289 14.2761 4.66675 14 4.66675H2C1.72386 4.66675 1.5 4.44289 1.5 4.16675Z" fill="#404040"/>
<path d="M1.5 8.00008C1.5 7.72394 1.72386 7.50008 2 7.50008H14C14.2761 7.50008 14.5 7.72394 14.5 8.00008C14.5 8.27622 14.2761 8.50008 14 8.50008H2C1.72386 8.50008 1.5 8.27622 1.5 8.00008Z" fill="#404040"/>
<path d="M2 11.3334C1.72386 11.3334 1.5 11.5573 1.5 11.8334C1.5 12.1096 1.72386 12.3334 2 12.3334H14C14.2761 12.3334 14.5 12.1096 14.5 11.8334C14.5 11.5573 14.2761 11.3334 14 11.3334H2Z" fill="#404040"/>
</svg>
