<svg width="12" height="12" viewBox="0 0 12 12" fill="none" xmlns="http://www.w3.org/2000/svg">
<path d="M2.5 0.5C2.5 0.223858 2.72386 0 3 0C3.27614 0 3.5 0.223858 3.5 0.5V10.2929L5.14645 8.64645C5.34171 8.45118 5.65829 8.45118 5.85355 8.64645C6.04882 8.84171 6.04882 9.15829 5.85355 9.35355L3.35355 11.8536C3.15829 12.0488 2.84171 12.0488 2.64645 11.8536L0.146446 9.35355C-0.0488155 9.15829 -0.0488155 8.84171 0.146446 8.64645C0.341708 8.45118 0.658291 8.45118 0.853553 8.64645L2.5 10.2929V0.5Z" fill="#fff"/>
<path d="M6 1C5.72386 1 5.5 1.22386 5.5 1.5C5.5 1.77614 5.72386 2 6 2H11.5C11.7761 2 12 1.77614 12 1.5C12 1.22386 11.7761 1 11.5 1H6Z" fill="#fff"/>
<path d="M5.5 4C5.5 3.72386 5.72386 3.5 6 3.5H10C10.2761 3.5 10.5 3.72386 10.5 4C10.5 4.27614 10.2761 4.5 10 4.5H6C5.72386 4.5 5.5 4.27614 5.5 4Z" fill="#fff"/>
<path d="M6 6C5.72386 6 5.5 6.22386 5.5 6.5C5.5 6.77614 5.72386 7 6 7H8.5C8.77614 7 9 6.77614 9 6.5C9 6.22386 8.77614 6 8.5 6H6Z" fill="#fff"/>
</svg>
